<?xml version="1.0" encoding="UTF-8"?>
<!--Generator: Apple Native CoreSVG 149-->
<!DOCTYPE svg
PUBLIC "-//W3C//DTD SVG 1.1//EN"
       "http://www.w3.org/Graphics/SVG/1.1/DTD/svg11.dtd">
<svg version="1.1" xmlns="http://www.w3.org/2000/svg" xmlns:xlink="http://www.w3.org/1999/xlink" width="3300" height="2200">
 <!--glyph: "uni100A7C.medium", point size: 100.000000, font version: "Version 16.0d12e3", template writer version: "8"-->
 <g id="Notes">
  <rect height="2200" id="artboard" style="fill:white;opacity:1" width="3300" x="0" y="0"/>
  <line id="" style="fill:none;stroke:black;opacity:1;stroke-width:0.5;" x1="263" x2="3036" y1="292" y2="292"/>
  <text style="stroke:none;fill:black;font-family:-apple-system,&quot;SF Pro Display&quot;,&quot;SF Pro Text&quot;,Helvetica,sans-serif;font-weight:bold;" transform="matrix(1 0 0 1 263 322)">Weight/Scale Variations</text>
  <text style="stroke:none;fill:black;font-family:-apple-system,&quot;SF Pro Display&quot;,&quot;SF Pro Text&quot;,Helvetica,sans-serif;text-anchor:middle;" transform="matrix(1 0 0 1 559.711 322)">Ultralight</text>
  <text style="stroke:none;fill:black;font-family:-apple-system,&quot;SF Pro Display&quot;,&quot;SF Pro Text&quot;,Helvetica,sans-serif;text-anchor:middle;" transform="matrix(1 0 0 1 856.422 322)">Thin</text>
  <text style="stroke:none;fill:black;font-family:-apple-system,&quot;SF Pro Display&quot;,&quot;SF Pro Text&quot;,Helvetica,sans-serif;text-anchor:middle;" transform="matrix(1 0 0 1 1153.13 322)">Light</text>
  <text style="stroke:none;fill:black;font-family:-apple-system,&quot;SF Pro Display&quot;,&quot;SF Pro Text&quot;,Helvetica,sans-serif;text-anchor:middle;" transform="matrix(1 0 0 1 1449.84 322)">Regular</text>
  <text style="stroke:none;fill:black;font-family:-apple-system,&quot;SF Pro Display&quot;,&quot;SF Pro Text&quot;,Helvetica,sans-serif;text-anchor:middle;" transform="matrix(1 0 0 1 1746.56 322)">Medium</text>
  <text style="stroke:none;fill:black;font-family:-apple-system,&quot;SF Pro Display&quot;,&quot;SF Pro Text&quot;,Helvetica,sans-serif;text-anchor:middle;" transform="matrix(1 0 0 1 2043.27 322)">Semibold</text>
  <text style="stroke:none;fill:black;font-family:-apple-system,&quot;SF Pro Display&quot;,&quot;SF Pro Text&quot;,Helvetica,sans-serif;text-anchor:middle;" transform="matrix(1 0 0 1 2339.98 322)">Bold</text>
  <text style="stroke:none;fill:black;font-family:-apple-system,&quot;SF Pro Display&quot;,&quot;SF Pro Text&quot;,Helvetica,sans-serif;text-anchor:middle;" transform="matrix(1 0 0 1 2636.69 322)">Heavy</text>
  <text style="stroke:none;fill:black;font-family:-apple-system,&quot;SF Pro Display&quot;,&quot;SF Pro Text&quot;,Helvetica,sans-serif;text-anchor:middle;" transform="matrix(1 0 0 1 2933.4 322)">Black</text>
  <line id="" style="fill:none;stroke:black;opacity:1;stroke-width:0.5;" x1="263" x2="3036" y1="1903" y2="1903"/>
  <g id="" transform="matrix(1 0 0 1 263 1933)">
   <path d="M9.24805 0.830078C13.5547 0.830078 17.1387-2.74414 17.1387-7.05078C17.1387-11.3574 13.5449-14.9316 9.23828-14.9316C4.94141-14.9316 1.36719-11.3574 1.36719-7.05078C1.36719-2.74414 4.95117 0.830078 9.24805 0.830078ZM9.24805-0.654297C5.70312-0.654297 2.87109-3.49609 2.87109-7.05078C2.87109-10.6055 5.69336-13.4473 9.23828-13.4473C12.793-13.4473 15.6348-10.6055 15.6445-7.05078C15.6543-3.49609 12.8027-0.654297 9.24805-0.654297ZM9.22852-3.62305C9.69727-3.62305 9.9707-3.93555 9.9707-4.45312L9.9707-6.31836L12.002-6.31836C12.5-6.31836 12.832-6.57227 12.832-7.04102C12.832-7.51953 12.5195-7.7832 12.002-7.7832L9.9707-7.7832L9.9707-9.81445C9.9707-10.332 9.69727-10.6543 9.22852-10.6543C8.75977-10.6543 8.50586-10.3125 8.50586-9.81445L8.50586-7.7832L6.49414-7.7832C5.97656-7.7832 5.64453-7.51953 5.64453-7.04102C5.64453-6.57227 5.99609-6.31836 6.49414-6.31836L8.50586-6.31836L8.50586-4.45312C8.50586-3.95508 8.75977-3.62305 9.22852-3.62305Z"/>
  </g>
  <g id="" transform="matrix(1 0 0 1 281.506 1933)">
   <path d="M11.709 2.91016C17.1582 2.91016 21.6699-1.61133 21.6699-7.05078C21.6699-12.5 17.1484-17.0117 11.6992-17.0117C6.25977-17.0117 1.74805-12.5 1.74805-7.05078C1.74805-1.61133 6.26953 2.91016 11.709 2.91016ZM11.709 1.25C7.09961 1.25 3.41797-2.44141 3.41797-7.05078C3.41797-11.6602 7.08984-15.3516 11.6992-15.3516C16.3086-15.3516 20-11.6602 20.0098-7.05078C20.0195-2.44141 16.3184 1.25 11.709 1.25ZM11.6797-2.66602C12.207-2.66602 12.5098-3.01758 12.5098-3.59375L12.5098-6.23047L15.3223-6.23047C15.8691-6.23047 16.25-6.51367 16.25-7.03125C16.25-7.55859 15.8887-7.86133 15.3223-7.86133L12.5098-7.86133L12.5098-10.6836C12.5098-11.25 12.207-11.6113 11.6797-11.6113C11.1621-11.6113 10.8789-11.2305 10.8789-10.6836L10.8789-7.86133L8.07617-7.86133C7.50977-7.86133 7.13867-7.55859 7.13867-7.03125C7.13867-6.51367 7.5293-6.23047 8.07617-6.23047L10.8789-6.23047L10.8789-3.59375C10.8789-3.03711 11.1621-2.66602 11.6797-2.66602Z"/>
  </g>
  <g id="" transform="matrix(1 0 0 1 304.924 1933)">
   <path d="M14.9707 5.66406C21.9336 5.66406 27.6953-0.0976562 27.6953-7.05078C27.6953-14.0137 21.9238-19.7754 14.9609-19.7754C8.00781-19.7754 2.25586-14.0137 2.25586-7.05078C2.25586-0.0976562 8.01758 5.66406 14.9707 5.66406ZM14.9707 3.84766C8.93555 3.84766 4.08203-1.01562 4.08203-7.05078C4.08203-13.0957 8.92578-17.9492 14.9609-17.9492C21.0059-17.9492 25.8594-13.0957 25.8691-7.05078C25.8789-1.01562 21.0156 3.84766 14.9707 3.84766ZM14.9414-1.38672C15.5176-1.38672 15.8594-1.77734 15.8594-2.38281L15.8594-6.13281L19.7754-6.13281C20.3711-6.13281 20.7812-6.46484 20.7812-7.02148C20.7812-7.59766 20.3906-7.93945 19.7754-7.93945L15.8594-7.93945L15.8594-11.8652C15.8594-12.4805 15.5176-12.8711 14.9414-12.8711C14.375-12.8711 14.0527-12.4609 14.0527-11.8652L14.0527-7.93945L10.1465-7.93945C9.53125-7.93945 9.13086-7.59766 9.13086-7.02148C9.13086-6.46484 9.55078-6.13281 10.1465-6.13281L14.0527-6.13281L14.0527-2.38281C14.0527-1.79688 14.375-1.38672 14.9414-1.38672Z"/>
  </g>
  <text style="stroke:none;fill:black;font-family:-apple-system,&quot;SF Pro Display&quot;,&quot;SF Pro Text&quot;,Helvetica,sans-serif;font-weight:bold;" transform="matrix(1 0 0 1 263 1953)">Design Variations</text>
  <text style="stroke:none;fill:black;font-family:-apple-system,&quot;SF Pro Display&quot;,&quot;SF Pro Text&quot;,Helvetica,sans-serif;" transform="matrix(1 0 0 1 263 1971)">Symbols are supported in up to nine weights and three scales.</text>
  <text style="stroke:none;fill:black;font-family:-apple-system,&quot;SF Pro Display&quot;,&quot;SF Pro Text&quot;,Helvetica,sans-serif;" transform="matrix(1 0 0 1 263 1989)">For optimal layout with text and other symbols, vertically align</text>
  <text style="stroke:none;fill:black;font-family:-apple-system,&quot;SF Pro Display&quot;,&quot;SF Pro Text&quot;,Helvetica,sans-serif;" transform="matrix(1 0 0 1 263 2007)">symbols with the adjacent text.</text>
  <line id="" style="fill:none;stroke:#00AEEF;stroke-width:0.5;opacity:1.0;" x1="776" x2="776" y1="1919" y2="1933"/>
  <g id="" transform="matrix(1 0 0 1 776 1933)">
   <path d="M3.31055 0.126953C3.82812 0.126953 4.08203-0.0683594 4.26758-0.605469L5.52734-4.0625L11.2891-4.0625L12.5488-0.605469C12.7344-0.0683594 12.9883 0.126953 13.4961 0.126953C14.0137 0.126953 14.3457-0.185547 14.3457-0.673828C14.3457-0.839844 14.3164-0.986328 14.2383-1.20117L9.6582-13.3887C9.43359-13.9941 9.0332-14.2871 8.4082-14.2871C7.80273-14.2871 7.39258-13.9941 7.17773-13.3984L2.59766-1.19141C2.51953-0.976562 2.49023-0.830078 2.49023-0.664062C2.49023-0.175781 2.80273 0.126953 3.31055 0.126953ZM6.00586-5.53711L8.37891-12.1094L8.42773-12.1094L10.8008-5.53711Z"/>
  </g>
  <line id="" style="fill:none;stroke:#00AEEF;stroke-width:0.5;opacity:1.0;" x1="792.836" x2="792.836" y1="1919" y2="1933"/>
  <text style="stroke:none;fill:black;font-family:-apple-system,&quot;SF Pro Display&quot;,&quot;SF Pro Text&quot;,Helvetica,sans-serif;font-weight:bold;" transform="matrix(1 0 0 1 776 1953)">Margins</text>
  <text style="stroke:none;fill:black;font-family:-apple-system,&quot;SF Pro Display&quot;,&quot;SF Pro Text&quot;,Helvetica,sans-serif;" transform="matrix(1 0 0 1 776 1971)">Leading and trailing margins on the left and right side of each symbol</text>
  <text style="stroke:none;fill:black;font-family:-apple-system,&quot;SF Pro Display&quot;,&quot;SF Pro Text&quot;,Helvetica,sans-serif;" transform="matrix(1 0 0 1 776 1989)">can be adjusted by modifying the x-location of the margin guidelines.</text>
  <text style="stroke:none;fill:black;font-family:-apple-system,&quot;SF Pro Display&quot;,&quot;SF Pro Text&quot;,Helvetica,sans-serif;" transform="matrix(1 0 0 1 776 2007)">Modifications are automatically applied proportionally to all</text>
  <text style="stroke:none;fill:black;font-family:-apple-system,&quot;SF Pro Display&quot;,&quot;SF Pro Text&quot;,Helvetica,sans-serif;" transform="matrix(1 0 0 1 776 2025)">scales and weights.</text>
  <g id="" transform="matrix(1 0 0 1 1289 1933)">
   <path d="M2.8418 1.86523L4.54102 3.57422C5.40039 4.44336 6.38672 4.38477 7.31445 3.35938L17.4902-7.85156C17.7539-7.76367 18.0273-7.7832 18.3398-7.8418L19.4043-8.03711L20.0684-7.36328L20.0293-6.80664C19.9902-6.30859 20.1172-5.92773 20.6055-5.44922L21.3672-4.70703C21.8457-4.22852 22.4609-4.19922 22.9297-4.66797L25.8398-7.58789C26.3086-8.05664 26.2891-8.65234 25.8105-9.13086L25.0391-9.89258C24.5605-10.3711 24.1895-10.5273 23.7109-10.4883L23.1348-10.4395L22.4902-11.0742L22.7344-12.1973C22.8613-12.7637 22.7051-13.2031 22.1191-13.7891L19.9219-15.9766C16.582-19.2969 12.1484-19.2188 9.25781-16.3281C8.83789-15.918 8.80859-15.3418 9.04297-14.9512C9.27734-14.5898 9.73633-14.3555 10.3809-14.5215C11.8457-14.8633 13.3691-14.9219 14.7949-13.9844L14.209-12.5293C14.0137-12.0508 13.9844-11.6504 14.1113-11.2891L3.04688-0.898438C2.06055 0.0195312 1.98242 0.996094 2.8418 1.86523ZM10.752-15.957C13.1836-17.7344 16.4746-17.4316 18.7012-15.2051L21.1328-12.793C21.3672-12.5586 21.4062-12.373 21.3379-12.0312L21.0156-10.5469L22.5195-9.0625L23.5059-9.12109C23.7598-9.13086 23.8379-9.11133 24.0332-8.91602L24.6094-8.33984L22.168-5.89844L21.5918-6.47461C21.3965-6.66992 21.3672-6.74805 21.377-7.01172L21.4453-7.98828L19.9512-9.47266L18.4277-9.21875C18.1055-9.15039 17.959-9.17969 17.7148-9.41406L15.7129-11.416C15.459-11.6504 15.4297-11.8164 15.5859-12.1875L16.4648-14.2773C14.9023-15.7324 12.8711-16.3574 10.8398-15.7617C10.6836-15.7227 10.625-15.8496 10.752-15.957ZM5.27344 2.30469L4.10156 1.14258C3.63281 0.683594 3.74023 0.341797 4.14062-0.0195312L14.9512-10.1953L16.416-8.71094L6.42578 2.27539C6.07422 2.67578 5.74219 2.77344 5.27344 2.30469Z"/>
  </g>
  <text style="stroke:none;fill:black;font-family:-apple-system,&quot;SF Pro Display&quot;,&quot;SF Pro Text&quot;,Helvetica,sans-serif;font-weight:bold;" transform="matrix(1 0 0 1 1289 1953)">Exporting</text>
  <text style="stroke:none;fill:black;font-family:-apple-system,&quot;SF Pro Display&quot;,&quot;SF Pro Text&quot;,Helvetica,sans-serif;" transform="matrix(1 0 0 1 1289 1971)">Symbols should be outlined when exporting to ensure the</text>
  <text style="stroke:none;fill:black;font-family:-apple-system,&quot;SF Pro Display&quot;,&quot;SF Pro Text&quot;,Helvetica,sans-serif;" transform="matrix(1 0 0 1 1289 1989)">design is preserved when submitting to Xcode.</text>
  <text id="template-version" style="stroke:none;fill:black;font-family:-apple-system,&quot;SF Pro Display&quot;,&quot;SF Pro Text&quot;,Helvetica,sans-serif;text-anchor:end;" transform="matrix(1 0 0 1 3036 1933)">Template v.2.0</text>
  <text style="stroke:none;fill:black;font-family:-apple-system,&quot;SF Pro Display&quot;,&quot;SF Pro Text&quot;,Helvetica,sans-serif;text-anchor:end;" transform="matrix(1 0 0 1 3036 1951)">Requires Xcode 12 or greater</text>
  <text style="stroke:none;fill:black;font-family:-apple-system,&quot;SF Pro Display&quot;,&quot;SF Pro Text&quot;,Helvetica,sans-serif;text-anchor:end;" transform="matrix(1 0 0 1 3036 1969)">Generated from terminal</text>
  <text style="stroke:none;fill:black;font-family:-apple-system,&quot;SF Pro Display&quot;,&quot;SF Pro Text&quot;,Helvetica,sans-serif;text-anchor:end;" transform="matrix(1 0 0 1 3036 1987)">Typeset at 100 points</text>
  <text style="stroke:none;fill:black;font-family:-apple-system,&quot;SF Pro Display&quot;,&quot;SF Pro Text&quot;,Helvetica,sans-serif;" transform="matrix(1 0 0 1 263 726)">Small</text>
  <text style="stroke:none;fill:black;font-family:-apple-system,&quot;SF Pro Display&quot;,&quot;SF Pro Text&quot;,Helvetica,sans-serif;" transform="matrix(1 0 0 1 263 1156)">Medium</text>
  <text style="stroke:none;fill:black;font-family:-apple-system,&quot;SF Pro Display&quot;,&quot;SF Pro Text&quot;,Helvetica,sans-serif;" transform="matrix(1 0 0 1 263 1586)">Large</text>
 </g>
 <g id="Guides">
  <g id="H-reference" style="fill:#27AAE1;stroke:none;" transform="matrix(1 0 0 1 339 696)">
   <path d="M0.976562 0L3.66211 0L12.9883-24.4629L45.752-24.4629L55.127 0L57.7637 0L30.6152-70.459L28.125-70.459ZM29.3457-67.1387L29.4434-67.1387L44.873-26.709L13.8672-26.709Z"/>
  </g>
  <line id="Baseline-S" style="fill:none;stroke:#27AAE1;opacity:1;stroke-width:0.5;" x1="263" x2="3036" y1="696" y2="696"/>
  <line id="Capline-S" style="fill:none;stroke:#27AAE1;opacity:1;stroke-width:0.5;" x1="263" x2="3036" y1="625.541" y2="625.541"/>
  <g id="H-reference" style="fill:#27AAE1;stroke:none;" transform="matrix(1 0 0 1 339 1126)">
   <path d="M0.976562 0L3.66211 0L12.9883-24.4629L45.752-24.4629L55.127 0L57.7637 0L30.6152-70.459L28.125-70.459ZM29.3457-67.1387L29.4434-67.1387L44.873-26.709L13.8672-26.709Z"/>
  </g>
  <line id="Baseline-M" style="fill:none;stroke:#27AAE1;opacity:1;stroke-width:0.5;" x1="263" x2="3036" y1="1126" y2="1126"/>
  <line id="Capline-M" style="fill:none;stroke:#27AAE1;opacity:1;stroke-width:0.5;" x1="263" x2="3036" y1="1055.54" y2="1055.54"/>
  <g id="H-reference" style="fill:#27AAE1;stroke:none;" transform="matrix(1 0 0 1 339 1556)">
   <path d="M0.976562 0L3.66211 0L12.9883-24.4629L45.752-24.4629L55.127 0L57.7637 0L30.6152-70.459L28.125-70.459ZM29.3457-67.1387L29.4434-67.1387L44.873-26.709L13.8672-26.709Z"/>
  </g>
  <line id="Baseline-L" style="fill:none;stroke:#27AAE1;opacity:1;stroke-width:0.5;" x1="263" x2="3036" y1="1556" y2="1556"/>
  <line id="Capline-L" style="fill:none;stroke:#27AAE1;opacity:1;stroke-width:0.5;" x1="263" x2="3036" y1="1485.54" y2="1485.54"/>
  <line id="left-margin" style="fill:none;stroke:#00AEEF;stroke-width:0.5;opacity:1.0;" x1="1379.82" x2="1379.82" y1="1030.79" y2="1150.12"/>
  <line id="right-margin" style="fill:none;stroke:#00AEEF;stroke-width:0.5;opacity:1.0;" x1="1519.86" x2="1519.86" y1="1030.79" y2="1150.12"/>
 </g>
 <g id="Symbols">
  <g id="Black-L" transform="matrix(1 0 0 1 2841.51 1556)">
   <path d="M39.9902 26.5137L143.799 26.5137C159.082 26.5137 167.725 17.8711 167.725 2.68555L167.725-73.0957C167.725-88.2812 159.082-96.875 143.799-96.875L39.9902-96.875C24.7559-96.875 16.0645-88.2812 16.0645-73.0957L16.0645 2.68555C16.0645 17.8711 24.7559 26.5137 39.9902 26.5137ZM42.6758 6.29883C38.4766 6.29883 36.3281 4.39453 36.3281-0.146484L36.3281-70.2148C36.3281-74.7559 38.4766-76.6602 42.6758-76.6602L141.064-76.6602C145.312-76.6602 147.461-74.7559 147.461-70.2148L147.461-0.146484C147.461 4.39453 145.312 6.29883 141.064 6.29883ZM49.707-43.4082C42.3828-38.9648 48.6816-27.7344 56.6406-32.7637L73.291-43.2617C78.1738-46.3379 78.0762-53.6621 73.291-56.6406L56.6406-67.0898C48.7305-72.1191 42.3828-60.8887 49.6582-56.4941L60.498-49.9023ZM75.9766-34.4238C75.9766-31.0059 78.7109-28.1738 82.1777-28.1738L104.541-28.1738C108.008-28.1738 110.693-31.0059 110.693-34.4238C110.693-37.8906 108.008-40.5273 104.541-40.5273L82.1777-40.5273C78.7598-40.5273 75.9766-37.8906 75.9766-34.4238Z"/>
  </g>
  <g id="Heavy-L" transform="matrix(1 0 0 1 2545.23 1556)">
   <path d="M38.8184 25.4883L144.092 25.4883C158.74 25.4883 166.846 17.4316 166.846 2.88086L166.846-73.2422C166.846-87.793 158.74-95.8496 144.092-95.8496L38.8184-95.8496C24.2188-95.8496 16.0645-87.793 16.0645-73.2422L16.0645 2.88086C16.0645 17.4316 24.2188 25.4883 38.8184 25.4883ZM40.918 8.00781C36.084 8.00781 33.5938 5.71289 33.5938 0.585938L33.5938-70.9473C33.5938-76.0742 36.084-78.3691 40.918-78.3691L141.943-78.3691C146.777-78.3691 149.316-76.0742 149.316-70.9473L149.316 0.585938C149.316 5.71289 146.777 8.00781 141.943 8.00781ZM48.0469-43.7012C41.4062-39.6973 47.0703-29.5898 54.2969-34.1309L71.3379-44.8242C75.8301-47.6562 75.6836-54.3457 71.3379-57.0801L54.2969-67.7734C47.1191-72.3145 41.4062-62.207 47.998-58.2031L60.0098-50.9277ZM74.2188-35.2539C74.2188-32.2266 76.709-29.6875 79.834-29.6875L102.588-29.6875C105.713-29.6875 108.105-32.2266 108.105-35.2539C108.105-38.3789 105.713-40.8203 102.588-40.8203L79.834-40.8203C76.7578-40.8203 74.2188-38.3789 74.2188-35.2539Z"/>
  </g>
  <g id="Bold-L" transform="matrix(1 0 0 1 2249.01 1556)">
   <path d="M37.5 24.3652L144.385 24.3652C158.35 24.3652 165.869 16.8945 165.869 3.07617L165.869-73.3887C165.869-87.207 158.35-94.7266 144.385-94.7266L37.5-94.7266C23.6328-94.7266 16.0645-87.2559 16.0645-73.3887L16.0645 3.07617C16.0645 16.8945 23.6328 24.3652 37.5 24.3652ZM38.9648 9.91211C33.4473 9.91211 30.5176 7.17773 30.5176 1.41602L30.5176-71.7285C30.5176-77.5391 33.4473-80.2734 38.9648-80.2734L142.969-80.2734C148.389-80.2734 151.416-77.5391 151.416-71.7285L151.416 1.41602C151.416 7.17773 148.389 9.91211 142.969 9.91211ZM46.1426-44.043C40.332-40.5273 45.3125-31.6406 51.6602-35.6445L69.1406-46.6309C73.1445-49.1699 73.0469-55.127 69.1406-57.6172L51.6602-68.5547C45.3125-72.5586 40.2832-63.6719 46.1426-60.1562L59.4727-52.0996ZM72.3145-36.2305C72.3145-33.5938 74.4629-31.3965 77.1973-31.3965L100.342-31.3965C103.076-31.3965 105.176-33.5938 105.176-36.2305C105.176-38.9648 103.076-41.1133 100.342-41.1133L77.1973-41.1133C74.4629-41.1133 72.3145-38.9648 72.3145-36.2305Z"/>
  </g>
  <g id="Semibold-L" transform="matrix(1 0 0 1 1952.64 1556)">
   <path d="M36.6211 23.584L144.629 23.584C158.057 23.584 165.186 16.5039 165.186 3.17383L165.186-73.5352C165.186-86.8164 158.057-93.9453 144.629-93.9453L36.6211-93.9453C23.1934-93.9453 16.0645-86.8652 16.0645-73.5352L16.0645 3.17383C16.0645 16.5527 23.1934 23.584 36.6211 23.584ZM37.5977 11.2793C31.6406 11.2793 28.418 8.20312 28.418 1.95312L28.418-72.3145C28.418-78.5156 31.6406-81.5918 37.5977-81.5918L143.652-81.5918C149.512-81.5918 152.832-78.5156 152.832-72.3145L152.832 1.95312C152.832 8.20312 149.512 11.2793 143.652 11.2793ZM44.873-44.2871C39.5508-41.1133 44.043-33.0566 49.8047-36.6699L67.627-47.8516C71.3379-50.1465 71.1914-55.7129 67.627-57.959L49.8047-69.0918C44.0918-72.7051 39.502-64.7461 44.8242-61.4746L59.082-52.8809ZM70.9961-36.9141C70.9961-34.5215 72.9004-32.5195 75.3418-32.5195L98.8281-32.5195C101.318-32.5195 103.174-34.5215 103.174-36.9141C103.174-39.4043 101.318-41.3086 98.8281-41.3086L75.3418-41.3086C72.9004-41.3086 70.9961-39.4043 70.9961-36.9141Z"/>
  </g>
  <g id="Medium-L" transform="matrix(1 0 0 1 1656.2 1556)">
   <path d="M35.9375 22.998L144.775 22.998C157.861 22.998 164.648 16.2109 164.648 3.27148L164.648-73.6328C164.648-86.5234 157.861-93.3105 144.775-93.3105L35.9375-93.3105C22.9004-93.3105 16.0645-86.5723 16.0645-73.6328L16.0645 3.27148C16.0645 16.2598 22.9004 22.998 35.9375 22.998ZM36.5723 12.2559C30.2246 12.2559 26.8066 8.98438 26.8066 2.39258L26.8066-72.7051C26.8066-79.2969 30.2246-82.6172 36.5723-82.6172L144.141-82.6172C150.391-82.6172 153.906-79.2969 153.906-72.7051L153.906 2.39258C153.906 8.98438 150.391 12.2559 144.141 12.2559ZM43.8477-44.4824C38.9648-41.5039 43.1152-34.1309 48.4375-37.5L66.4551-48.7793C69.9219-50.9277 69.7754-56.1035 66.4551-58.2031L48.4375-69.4824C43.1641-72.8027 38.916-65.4785 43.8477-62.5L58.7891-53.4668ZM69.9707-37.4512C69.9707-35.2051 71.7285-33.3984 73.9746-33.3984L97.6562-33.3984C99.9512-33.3984 101.66-35.2051 101.66-37.4512C101.66-39.6973 99.9512-41.4551 97.6562-41.4551L73.9746-41.4551C71.7285-41.4551 69.9707-39.6973 69.9707-37.4512Z"/>
  </g>
  <g id="Regular-L" transform="matrix(1 0 0 1 1359.81 1556)">
   <path d="M35.0586 22.2168L144.971 22.2168C157.617 22.2168 164.014 15.8691 164.014 3.41797L164.014-73.7305C164.014-86.1816 157.617-92.5293 144.971-92.5293L35.0586-92.5293C22.4609-92.5293 16.0645-86.2305 16.0645-73.7305L16.0645 3.41797C16.0645 15.918 22.4609 22.2168 35.0586 22.2168ZM35.2539 13.5742C28.418 13.5742 24.707 9.96094 24.707 2.97852L24.707-73.291C24.707-80.2734 28.418-83.8867 35.2539-83.8867L144.824-83.8867C151.514-83.8867 155.322-80.2734 155.322-73.291L155.322 2.97852C155.322 9.96094 151.514 13.5742 144.824 13.5742ZM42.5781-44.6777C38.2324-42.0898 41.9434-35.5469 46.6309-38.5254L64.9902-50C68.1152-51.9531 67.9688-56.6406 64.9902-58.5449L46.6309-70.0195C41.9434-72.998 38.1836-66.5039 42.5781-63.8184L58.4473-54.248ZM68.6523-38.0859C68.6523-36.1328 70.166-34.5703 72.168-34.5703L96.1426-34.5703C98.1445-34.5703 99.707-36.1328 99.707-38.0859C99.707-40.0879 98.1445-41.6504 96.1426-41.6504L72.168-41.6504C70.166-41.6504 68.6523-40.0879 68.6523-38.0859Z"/>
  </g>
  <g id="Light-L" transform="matrix(1 0 0 1 1063.56 1556)">
   <path d="M34.0332 21.4355L145.117 21.4355C157.031 21.4355 163.086 15.2344 163.086 3.56445L163.086-73.8281C163.086-85.5469 157.031-91.6992 145.117-91.6992L34.0332-91.6992C22.168-91.6992 16.0645-85.6445 16.0645-73.8281L16.0645 3.56445C16.0645 15.3809 22.168 21.4355 34.0332 21.4355ZM34.1797 14.7949C26.709 14.7949 22.7051 10.8398 22.7051 3.22266L22.7051-73.4863C22.7051-81.1523 26.709-85.0586 34.1797-85.0586L144.971-85.0586C152.295-85.0586 156.494-81.1523 156.494-73.4863L156.494 3.22266C156.494 10.8398 152.295 14.7949 144.971 14.7949ZM41.748-44.9219C38.2324-42.7734 41.2109-37.5977 44.9707-39.8926L63.623-51.6113C66.1621-53.1738 66.0156-56.9824 63.623-58.4961L44.9707-70.166C41.2109-72.5098 38.1348-67.3828 41.748-65.1855L58.5938-55.0293ZM67.1875-38.8672C67.1875-37.3047 68.3594-36.084 69.9707-36.084L93.9453-36.084C95.5566-36.084 96.7773-37.3047 96.7773-38.8672C96.7773-40.4785 95.5566-41.6992 93.9453-41.6992L69.9707-41.6992C68.3594-41.6992 67.1875-40.4785 67.1875-38.8672Z"/>
  </g>
  <g id="Thin-L" transform="matrix(1 0 0 1 767.433 1556)">
   <path d="M32.666 20.3613L145.312 20.3613C156.201 20.3613 161.914 14.4531 161.914 3.75977L161.914-73.9746C161.914-84.7168 156.201-90.5762 145.312-90.5762L32.666-90.5762C21.7773-90.5762 16.0645-84.8633 16.0645-73.9746L16.0645 3.75977C16.0645 14.6484 21.7773 20.3613 32.666 20.3613ZM32.8125 16.4062C24.4141 16.4062 19.9707 12.0117 19.9707 3.56445L19.9707-73.7793C19.9707-82.2754 24.4141-86.6699 32.8125-86.6699L145.166-86.6699C153.32-86.6699 158.008-82.2754 158.008-73.7793L158.008 3.56445C158.008 12.0117 153.32 16.4062 145.166 16.4062ZM40.6738-45.166C38.2324-43.7012 40.2832-40.2832 42.7246-41.7969L61.7676-53.7109C63.5742-54.7852 63.4277-57.4219 61.7676-58.4473L42.7246-70.3613C40.2832-71.875 38.0859-68.5547 40.6738-66.9434L58.7402-56.0547ZM65.1855-39.8926C65.1855-38.8184 65.9668-38.0371 67.041-38.0371L91.0156-38.0371C92.1387-38.0371 92.8711-38.8184 92.8711-39.8926C92.8711-41.0156 92.1387-41.748 91.0156-41.748L67.041-41.748C65.9668-41.748 65.1855-41.0156 65.1855-39.8926Z"/>
  </g>
  <g id="Ultralight-L" transform="matrix(1 0 0 1 471.015 1556)">
   <path d="M31.9824 19.7754L145.41 19.7754C155.811 19.7754 161.328 14.0625 161.328 3.85742L161.328-74.0723C161.328-84.2773 155.811-89.9902 145.41-89.9902L31.9824-89.9902C21.582-89.9902 16.0645-84.4727 16.0645-74.0723L16.0645 3.85742C16.0645 14.2578 21.582 19.7754 31.9824 19.7754ZM32.1289 17.2363C23.1934 17.2363 18.6035 12.6465 18.6035 3.75977L18.6035-73.9258C18.6035-82.8125 23.1934-87.4512 32.1289-87.4512L145.264-87.4512C153.857-87.4512 158.789-82.8125 158.789-73.9258L158.789 3.75977C158.789 12.6465 153.857 17.2363 145.264 17.2363ZM40.1367-45.3125C38.2324-44.1895 39.8438-41.6504 41.6016-42.7246L60.8398-54.7852C62.2559-55.6152 62.1094-57.666 60.8398-58.3984L41.6016-70.459C39.8438-71.5332 38.0371-69.1895 40.1367-67.8711L58.8379-56.5918ZM64.1602-40.4297C64.1602-39.5996 64.6973-39.0625 65.5762-39.0625L89.502-39.0625C90.3809-39.0625 90.918-39.5996 90.918-40.4297C90.918-41.2598 90.3809-41.7969 89.502-41.7969L65.5762-41.7969C64.6973-41.7969 64.1602-41.2598 64.1602-40.4297Z"/>
  </g>
  <g id="Black-M" transform="matrix(1 0 0 1 2861.84 1126)">
   <path d="M31.9824 13.5742L111.133 13.5742C123.389 13.5742 130.664 6.29883 130.664-5.95703L130.664-64.4043C130.664-76.6602 123.389-83.9355 111.133-83.9355L31.9824-83.9355C19.7266-83.9355 12.4512-76.6602 12.4512-64.4043L12.4512-5.95703C12.4512 6.29883 19.7266 13.5742 31.9824 13.5742ZM34.9121-4.73633C32.0801-4.73633 30.7617-5.81055 30.7617-8.88672L30.7617-61.4746C30.7617-64.5508 32.0801-65.6738 34.9121-65.6738L108.203-65.6738C111.035-65.6738 112.402-64.5508 112.402-61.4746L112.402-8.88672C112.402-5.81055 111.035-4.73633 108.203-4.73633ZM40.3809-41.2598C34.1309-37.5 39.502-28.0273 46.1914-32.2266L58.6914-40.1367C62.7441-42.7246 62.6953-48.7305 58.6914-51.2207L46.1914-59.082C39.5508-63.2812 34.1309-53.8086 40.2832-50.0977L47.6074-45.6543ZM60.4004-33.8379C60.4004-30.957 62.7441-28.5645 65.6738-28.5645L82.5195-28.5645C85.498-28.5645 87.7441-30.957 87.7441-33.8379C87.7441-36.7676 85.498-39.0137 82.5195-39.0137L65.6738-39.0137C62.793-39.0137 60.4004-36.7676 60.4004-33.8379Z"/>
  </g>
  <g id="Heavy-M" transform="matrix(1 0 0 1 2565.5 1126)">
   <path d="M31.0059 12.6465L111.426 12.6465C123.193 12.6465 129.932 5.9082 129.932-5.81055L129.932-64.5508C129.932-76.2695 123.193-83.0566 111.426-83.0566L31.0059-83.0566C19.2383-83.0566 12.4512-76.3184 12.4512-64.5508L12.4512-5.81055C12.4512 5.9082 19.2383 12.6465 31.0059 12.6465ZM33.252-3.17383C29.9316-3.17383 28.2715-4.63867 28.2715-8.1543L28.2715-62.207C28.2715-65.7715 29.9316-67.2363 33.252-67.2363L109.131-67.2363C112.451-67.2363 114.111-65.7715 114.111-62.207L114.111-8.1543C114.111-4.63867 112.451-3.17383 109.131-3.17383ZM38.7207-41.5527C33.1055-38.1348 37.9395-29.541 44.043-33.3496L56.9336-41.4551C60.6934-43.8477 60.5957-49.4141 56.9336-51.709L44.043-59.7656C37.9883-63.623 33.1055-55.0293 38.6719-51.6113L47.0703-46.582ZM58.8867-34.5703C58.8867-31.9824 60.9863-29.7852 63.6719-29.7852L80.957-29.7852C83.5938-29.7852 85.6445-31.9824 85.6445-34.5703C85.6445-37.2559 83.5938-39.3066 80.957-39.3066L63.6719-39.3066C61.0352-39.3066 58.8867-37.2559 58.8867-34.5703Z"/>
  </g>
  <g id="Bold-M" transform="matrix(1 0 0 1 2269.18 1126)">
   <path d="M29.8828 11.6699L111.719 11.6699C122.949 11.6699 129.15 5.46875 129.15-5.66406L129.15-64.6973C129.15-75.8789 122.949-82.0312 111.719-82.0312L29.8828-82.0312C18.6523-82.0312 12.4512-75.8789 12.4512-64.6973L12.4512-5.66406C12.4512 5.51758 18.6523 11.6699 29.8828 11.6699ZM31.3965-1.41602C27.5391-1.41602 25.5371-3.27148 25.5371-7.32422L25.5371-63.0371C25.5371-67.1387 27.5391-68.9453 31.3965-68.9453L110.205-68.9453C114.014-68.9453 116.064-67.1387 116.064-63.0371L116.064-7.32422C116.064-3.27148 114.014-1.41602 110.205-1.41602ZM36.9141-41.8457C31.8848-38.8184 36.1816-31.2012 41.6504-34.6191L54.9316-42.9688C58.3496-45.1172 58.252-50.1953 54.9316-52.2461L41.6504-60.5957C36.2305-64.0137 31.8848-56.3965 36.9141-53.3691L46.4355-47.6074ZM57.2266-35.4004C57.2266-33.1055 59.082-31.2012 61.4258-31.2012L79.1504-31.2012C81.4941-31.2012 83.3496-33.1055 83.3496-35.4004C83.3496-37.793 81.4941-39.5996 79.1504-39.5996L61.4258-39.5996C59.1309-39.5996 57.2266-37.793 57.2266-35.4004Z"/>
  </g>
  <g id="Semibold-M" transform="matrix(1 0 0 1 1972.76 1126)">
   <path d="M29.1016 10.9863L111.914 10.9863C122.803 10.9863 128.564 5.17578 128.564-5.56641L128.564-64.8438C128.564-75.5859 122.803-81.3477 111.914-81.3477L29.1016-81.3477C18.2617-81.3477 12.4512-75.5859 12.4512-64.8438L12.4512-5.56641C12.4512 5.22461 18.2617 10.9863 29.1016 10.9863ZM30.127-0.195312C25.8789-0.195312 23.6328-2.34375 23.6328-6.78711L23.6328-63.623C23.6328-68.0664 25.8789-70.166 30.127-70.166L110.889-70.166C115.088-70.166 117.383-68.0664 117.383-63.623L117.383-6.78711C117.383-2.34375 115.088-0.195312 110.889-0.195312ZM35.6934-42.0898C31.1035-39.3066 35.0098-32.3242 39.9902-35.4492L53.5645-43.9941C56.7383-45.9961 56.6406-50.7324 53.5645-52.6367L39.9902-61.1328C35.0098-64.3066 31.0547-57.3242 35.6445-54.541L45.9961-48.291ZM56.0547-35.9863C56.0547-33.8867 57.7637-32.1777 59.9121-32.1777L77.9297-32.1777C80.0781-32.1777 81.7383-33.8867 81.7383-35.9863C81.7383-38.1348 80.0781-39.7949 77.9297-39.7949L59.9121-39.7949C57.7637-39.7949 56.0547-38.1348 56.0547-35.9863Z"/>
  </g>
  <g id="Medium-M" transform="matrix(1 0 0 1 1676.24 1126)">
   <path d="M28.5156 10.4492L112.061 10.4492C122.656 10.4492 128.174 4.98047 128.174-5.46875L128.174-64.8926C128.174-75.3418 122.656-80.8105 112.061-80.8105L28.5156-80.8105C17.9688-80.8105 12.4512-75.3906 12.4512-64.8926L12.4512-5.46875C12.4512 4.98047 17.9688 10.4492 28.5156 10.4492ZM29.1504 0.732422C24.6582 0.732422 22.168-1.61133 22.168-6.34766L22.168-64.0137C22.168-68.75 24.6582-71.0938 29.1504-71.0938L111.426-71.0938C115.918-71.0938 118.408-68.75 118.408-64.0137L118.408-6.34766C118.408-1.61133 115.918 0.732422 111.426 0.732422ZM34.7168-42.2363C30.4688-39.6484 34.082-33.2031 38.7207-36.1328L52.4902-44.7754C55.5176-46.6309 55.3711-51.123 52.4902-52.9297L38.7207-61.5723C34.082-64.502 30.4199-58.0566 34.7168-55.4688L45.6543-48.8281ZM55.2246-36.4258C55.2246-34.5215 56.7383-32.9102 58.7402-32.9102L77.002-32.9102C79.0039-32.9102 80.5176-34.5215 80.5176-36.4258C80.5176-38.4277 79.0039-39.9414 77.002-39.9414L58.7402-39.9414C56.7383-39.9414 55.2246-38.4277 55.2246-36.4258Z"/>
  </g>
  <g id="Regular-M" transform="matrix(1 0 0 1 1379.82 1126)">
   <path d="M27.7832 9.76562L112.256 9.76562C122.51 9.76562 127.588 4.6875 127.588-5.37109L127.588-64.9902C127.588-75.0488 122.51-80.127 112.256-80.127L27.7832-80.127C17.5781-80.127 12.4512-75.0977 12.4512-64.9902L12.4512-5.37109C12.4512 4.73633 17.5781 9.76562 27.7832 9.76562ZM27.8809 1.9043C22.998 1.9043 20.3125-0.683594 20.3125-5.76172L20.3125-64.5996C20.3125-69.6777 22.998-72.2656 27.8809-72.2656L112.158-72.2656C116.992-72.2656 119.727-69.6777 119.727-64.5996L119.727-5.76172C119.727-0.683594 116.992 1.9043 112.158 1.9043ZM33.4961-42.4316C29.6387-40.1367 32.9102-34.3262 37.1094-36.9629L51.1719-45.752C53.9062-47.5098 53.7598-51.6602 51.1719-53.3203L37.1094-62.1094C32.9102-64.7461 29.6387-58.9844 33.4961-56.6406L45.2148-49.5605ZM54.0527-37.0117C54.0527-35.3027 55.4199-33.8867 57.2266-33.8867L75.7812-33.8867C77.5391-33.8867 78.9551-35.3027 78.9551-37.0117C78.9551-38.7695 77.5391-40.1855 75.7812-40.1855L57.2266-40.1855C55.4199-40.1855 54.0527-38.7695 54.0527-37.0117Z"/>
  </g>
  <g id="Light-M" transform="matrix(1 0 0 1 1083.5 1126)">
   <path d="M26.8555 9.0332L112.402 9.0332C121.973 9.0332 126.807 4.15039 126.807-5.22461L126.807-65.0879C126.807-74.5117 121.973-79.3945 112.402-79.3945L26.8555-79.3945C17.334-79.3945 12.4512-74.5605 12.4512-65.0879L12.4512-5.22461C12.4512 4.19922 17.334 9.0332 26.8555 9.0332ZM26.9531 2.97852C21.4844 2.97852 18.5059 0.0976562 18.5059-5.56641L18.5059-64.7949C18.5059-70.4102 21.4844-73.3398 26.9531-73.3398L112.305-73.3398C117.676-73.3398 120.752-70.4102 120.752-64.7949L120.752-5.56641C120.752 0.0976562 117.676 2.97852 112.305 2.97852ZM32.7637-42.627C29.6387-40.7715 32.2754-36.1328 35.5957-38.2324L49.9023-47.2168C52.1484-48.584 52.0508-51.9531 49.9023-53.2715L35.5957-62.2559C32.2754-64.3555 29.5898-59.7656 32.7637-57.8613L45.3613-50.2441ZM52.7344-37.6953C52.7344-36.3281 53.8086-35.2051 55.2246-35.2051L73.7793-35.2051C75.2441-35.2051 76.3184-36.3281 76.3184-37.6953C76.3184-39.1113 75.2441-40.2344 73.7793-40.2344L55.2246-40.2344C53.8086-40.2344 52.7344-39.1113 52.7344-37.6953Z"/>
  </g>
  <g id="Thin-M" transform="matrix(1 0 0 1 787.33 1126)">
   <path d="M25.6348 8.05664L112.598 8.05664C121.24 8.05664 125.732 3.4668 125.732-5.0293L125.732-65.2344C125.732-73.7305 121.24-78.3691 112.598-78.3691L25.6348-78.3691C16.9922-78.3691 12.4512-73.877 12.4512-65.2344L12.4512-5.0293C12.4512 3.56445 16.9922 8.05664 25.6348 8.05664ZM25.7324 4.44336C19.3848 4.44336 16.0645 1.12305 16.0645-5.22461L16.0645-65.0391C16.0645-71.4355 19.3848-74.7559 25.7324-74.7559L112.451-74.7559C118.604-74.7559 122.119-71.4355 122.119-65.0391L122.119-5.22461C122.119 1.12305 118.604 4.44336 112.451 4.44336ZM31.7871-42.8711C29.6387-41.6016 31.4453-38.5742 33.5938-39.8926L48.291-49.0723C49.8535-50.0488 49.707-52.3438 48.291-53.2227L33.5938-62.4023C31.4453-63.7695 29.541-60.8398 31.7871-59.4238L45.5078-51.1719ZM50.9766-38.623C50.9766-37.6953 51.6602-36.9629 52.5879-36.9629L71.1914-36.9629C72.1191-36.9629 72.8027-37.6953 72.8027-38.623C72.8027-39.5996 72.1191-40.2832 71.1914-40.2832L52.5879-40.2832C51.6602-40.2832 50.9766-39.5996 50.9766-38.623Z"/>
  </g>
  <g id="Ultralight-M" transform="matrix(1 0 0 1 490.888 1126)">
   <path d="M25 7.56836L112.695 7.56836C120.85 7.56836 125.195 3.125 125.195-4.98047L125.195-65.2832C125.195-73.3887 120.85-77.832 112.695-77.832L25-77.832C16.7969-77.832 12.4512-73.4863 12.4512-65.2832L12.4512-4.98047C12.4512 3.22266 16.7969 7.56836 25 7.56836ZM25.0977 5.17578C18.3594 5.17578 14.8438 1.66016 14.8438-5.07812L14.8438-65.1855C14.8438-71.9727 18.3594-75.4395 25.0977-75.4395L112.549-75.4395C119.043-75.4395 122.803-71.9727 122.803-65.1855L122.803-5.07812C122.803 1.66016 119.043 5.17578 112.549 5.17578ZM31.25-43.0176C29.6387-42.041 31.0059-39.7949 32.5684-40.7715L47.4609-50.0488C48.6816-50.7812 48.5352-52.5391 47.4609-53.2227L32.5684-62.5C31.0059-63.4766 29.4922-61.377 31.25-60.2539L45.6055-51.6113ZM50.0488-39.1113C50.0488-38.3789 50.5371-37.8906 51.2695-37.8906L69.8242-37.8906C70.5566-37.8906 71.0449-38.3789 71.0449-39.1113C71.0449-39.8438 70.5566-40.332 69.8242-40.332L51.2695-40.332C50.5371-40.332 50.0488-39.8438 50.0488-39.1113Z"/>
  </g>
  <g id="Black-S" transform="matrix(1 0 0 1 2877.35 696)">
   <path d="M25 2.92969L87.1094 2.92969C96.6797 2.92969 102.344-2.73438 102.344-12.3047L102.344-58.1055C102.344-67.6758 96.6797-73.3398 87.1094-73.3398L25-73.3398C15.4297-73.3398 9.76562-67.6758 9.76562-58.1055L9.76562-12.3047C9.76562-2.73438 15.4297 2.92969 25 2.92969ZM27.2461-11.2305C25-11.2305 23.9258-12.1094 23.9258-14.5508L23.9258-55.8594C23.9258-58.3008 25-59.1797 27.2461-59.1797L84.8633-59.1797C87.1094-59.1797 88.1836-58.3008 88.1836-55.8594L88.1836-14.5508C88.1836-12.1094 87.1094-11.2305 84.8633-11.2305ZM31.4941-39.9902C26.6602-37.0605 30.8105-29.6875 36.0352-32.959L45.8496-39.1602C49.0234-41.1621 48.9746-45.8496 45.8496-47.8027L36.0352-53.9551C30.8594-57.2266 26.6602-49.8535 31.4453-46.9727L37.2559-43.457ZM47.2168-34.1797C47.2168-31.9336 49.0234-30.0781 51.3184-30.0781L64.5508-30.0781C66.8457-30.0781 68.6035-31.9336 68.6035-34.1797C68.6035-36.4746 66.8457-38.2324 64.5508-38.2324L51.3184-38.2324C49.0723-38.2324 47.2168-36.4746 47.2168-34.1797Z"/>
  </g>
  <g id="Heavy-S" transform="matrix(1 0 0 1 2580.88 696)">
   <path d="M24.3652 2.34375L87.3047 2.34375C96.582 2.34375 101.855-2.97852 101.855-12.207L101.855-58.2031C101.855-67.4316 96.582-72.7539 87.3047-72.7539L24.3652-72.7539C15.0879-72.7539 9.76562-67.4316 9.76562-58.2031L9.76562-12.207C9.76562-2.97852 15.0879 2.34375 24.3652 2.34375ZM26.0742-10.1562C23.5352-10.1562 22.2656-11.2793 22.2656-14.0137L22.2656-56.3965C22.2656-59.1309 23.5352-60.2539 26.0742-60.2539L85.5469-60.2539C88.0859-60.2539 89.4043-59.1309 89.4043-56.3965L89.4043-14.0137C89.4043-11.2793 88.0859-10.1562 85.5469-10.1562ZM30.3223-40.1855C25.8301-37.4512 29.6875-30.6152 34.5703-33.6914L44.6289-40.0391C47.6074-41.8945 47.5586-46.3379 44.6289-48.1934L34.5703-54.4922C29.7363-57.5684 25.8301-50.6836 30.2734-47.998L36.8164-44.0918ZM46.2402-34.668C46.2402-32.6172 47.9004-30.9082 50-30.9082L63.5742-30.9082C65.6738-30.9082 67.2852-32.6172 67.2852-34.668C67.2852-36.8164 65.6738-38.4277 63.5742-38.4277L50-38.4277C47.9004-38.4277 46.2402-36.8164 46.2402-34.668Z"/>
  </g>
  <g id="Bold-S" transform="matrix(1 0 0 1 2284.41 696)">
   <path d="M23.6328 1.66016L87.5 1.66016C96.4844 1.66016 101.367-3.22266 101.367-12.1094L101.367-58.3008C101.367-67.1875 96.4844-72.0703 87.5-72.0703L23.6328-72.0703C14.6973-72.0703 9.76562-67.1875 9.76562-58.3008L9.76562-12.1094C9.76562-3.22266 14.6973 1.66016 23.6328 1.66016ZM24.8047-8.93555C21.9238-8.93555 20.3613-10.3516 20.3613-13.4277L20.3613-56.9824C20.3613-60.0586 21.9238-61.4746 24.8047-61.4746L86.3281-61.4746C89.209-61.4746 90.7715-60.0586 90.7715-56.9824L90.7715-13.4277C90.7715-10.3516 89.209-8.93555 86.3281-8.93555ZM29.0527-40.3809C24.9512-37.9395 28.418-31.6406 32.9102-34.4727L43.2617-40.9668C46.0449-42.7246 45.9961-46.875 43.2617-48.584L32.9102-55.0781C28.4668-57.9102 24.9512-51.6602 29.0039-49.1699L36.2793-44.7754ZM45.1172-35.2539C45.1172-33.3496 46.6309-31.7871 48.5352-31.7871L62.4512-31.7871C64.3555-31.7871 65.8691-33.3496 65.8691-35.2539C65.8691-37.1582 64.3555-38.6719 62.4512-38.6719L48.5352-38.6719C46.6309-38.6719 45.1172-37.1582 45.1172-35.2539Z"/>
  </g>
  <g id="Semibold-S" transform="matrix(1 0 0 1 1987.9 696)">
   <path d="M23.0957 1.17188L87.6465 1.17188C96.3867 1.17188 100.977-3.36914 100.977-12.0117L100.977-58.3984C100.977-67.041 96.3867-71.582 87.6465-71.582L23.0957-71.582C14.4043-71.582 9.76562-67.041 9.76562-58.3984L9.76562-12.0117C9.76562-3.36914 14.4043 1.17188 23.0957 1.17188ZM23.877-8.10547C20.752-8.10547 19.0918-9.7168 19.0918-12.9883L19.0918-57.4219C19.0918-60.6934 20.752-62.3047 23.877-62.3047L86.8652-62.3047C89.9902-62.3047 91.6992-60.6934 91.6992-57.4219L91.6992-12.9883C91.6992-9.7168 89.9902-8.10547 86.8652-8.10547ZM28.125-40.5273C24.3164-38.2324 27.5879-32.373 31.7871-35.0098L42.2852-41.6504C44.9707-43.3105 44.873-47.2656 42.2852-48.877L31.7871-55.5176C27.5879-58.1543 24.3164-52.2949 28.125-50L35.9375-45.2637ZM44.3359-35.5957C44.3359-33.8867 45.752-32.4219 47.5098-32.4219L61.6699-32.4219C63.4766-32.4219 64.8438-33.8867 64.8438-35.5957C64.8438-37.4023 63.4766-38.8184 61.6699-38.8184L47.5098-38.8184C45.752-38.8184 44.3359-37.4023 44.3359-35.5957Z"/>
  </g>
  <g id="Medium-S" transform="matrix(1 0 0 1 1691.31 696)">
   <path d="M22.7051 0.830078L87.7441 0.830078C96.3379 0.830078 100.732-3.51562 100.732-11.9629L100.732-58.4473C100.732-66.8945 96.3379-71.2402 87.7441-71.2402L22.7051-71.2402C14.209-71.2402 9.76562-66.8945 9.76562-58.4473L9.76562-11.9629C9.76562-3.51562 14.209 0.830078 22.7051 0.830078ZM23.1934-7.4707C19.9219-7.4707 18.0664-9.22852 18.0664-12.6953L18.0664-57.7148C18.0664-61.1816 19.9219-62.9395 23.1934-62.9395L87.3047-62.9395C90.5762-62.9395 92.3828-61.1816 92.3828-57.7148L92.3828-12.6953C92.3828-9.22852 90.5762-7.4707 87.3047-7.4707ZM27.4414-40.6738C23.8281-38.4766 26.9043-32.9102 30.9082-35.4492L41.6016-42.1387C44.1406-43.75 44.043-47.5586 41.6016-49.1211L30.9082-55.8105C26.9043-58.3496 23.8281-52.7832 27.4414-50.5859L35.6934-45.6055ZM43.75-35.8887C43.75-34.2773 45.0684-32.9102 46.7773-32.9102L61.084-32.9102C62.793-32.9102 64.1113-34.2773 64.1113-35.8887C64.1113-37.5977 62.793-38.916 61.084-38.916L46.7773-38.916C45.0684-38.916 43.75-37.5977 43.75-35.8887Z"/>
  </g>
  <g id="Regular-S" transform="matrix(1 0 0 1 1394.79 696)">
   <path d="M22.2168 0.390625L87.8906 0.390625C96.2402 0.390625 100.342-3.71094 100.342-11.9141L100.342-58.4961C100.342-66.6992 96.2402-70.8008 87.8906-70.8008L22.2168-70.8008C13.916-70.8008 9.76562-66.6992 9.76562-58.4961L9.76562-11.9141C9.76562-3.71094 13.916 0.390625 22.2168 0.390625ZM22.3145-6.68945C18.7988-6.68945 16.7969-8.54492 16.7969-12.2559L16.7969-58.1543C16.7969-61.8164 18.7988-63.7207 22.3145-63.7207L87.793-63.7207C91.3086-63.7207 93.3105-61.8164 93.3105-58.1543L93.3105-12.2559C93.3105-8.54492 91.3086-6.68945 87.793-6.68945ZM26.5625-40.8203C23.2422-38.7695 26.0742-33.6426 29.7852-35.9863L40.6738-42.8223C43.0664-44.2871 42.9688-47.9492 40.6738-49.4141L29.7852-56.2012C26.0742-58.5938 23.1934-53.4668 26.5625-51.416L35.3516-46.0938ZM42.9688-36.2793C42.9688-34.7656 44.1895-33.4961 45.752-33.4961L60.3027-33.4961C61.8652-33.4961 63.0859-34.7656 63.0859-36.2793C63.0859-37.8418 61.8652-39.0625 60.3027-39.0625L45.752-39.0625C44.1895-39.0625 42.9688-37.8418 42.9688-36.2793Z"/>
  </g>
  <g id="Light-S" transform="matrix(1 0 0 1 1098.42 696)">
   <path d="M21.3867-0.292969L88.0371-0.292969C95.752-0.292969 99.6582-4.15039 99.6582-11.7676L99.6582-58.5938C99.6582-66.2109 95.752-70.1172 88.0371-70.1172L21.3867-70.1172C13.6719-70.1172 9.76562-66.2598 9.76562-58.5938L9.76562-11.7676C9.76562-4.15039 13.6719-0.292969 21.3867-0.292969ZM21.4844-5.71289C17.4316-5.71289 15.1855-7.86133 15.1855-12.0605L15.1855-58.3008C15.1855-62.5 17.4316-64.6973 21.4844-64.6973L87.9395-64.6973C91.9434-64.6973 94.2383-62.5 94.2383-58.3008L94.2383-12.0605C94.2383-7.86133 91.9434-5.71289 87.9395-5.71289ZM25.9277-40.9668C23.1934-39.3066 25.4883-35.2539 28.4668-37.1094L39.5508-44.043C41.5039-45.2637 41.4062-48.1934 39.5508-49.3652L28.4668-56.3477C25.4883-58.2031 23.1934-54.1504 25.9277-52.4902L35.4492-46.7285ZM41.7969-36.9141C41.7969-35.6934 42.7734-34.7168 43.9941-34.7168L58.5449-34.7168C59.8145-34.7168 60.791-35.6934 60.791-36.9141C60.791-38.1348 59.8145-39.1113 58.5449-39.1113L43.9941-39.1113C42.7734-39.1113 41.7969-38.1348 41.7969-36.9141Z"/>
  </g>
  <g id="Thin-S" transform="matrix(1 0 0 1 802.174 696)">
   <path d="M20.3125-1.12305L88.1836-1.12305C95.1172-1.12305 98.7305-4.78516 98.7305-11.6211L98.7305-58.6914C98.7305-65.5762 95.1172-69.2383 88.1836-69.2383L20.3125-69.2383C13.3789-69.2383 9.76562-65.625 9.76562-58.6914L9.76562-11.6211C9.76562-4.6875 13.3789-1.12305 20.3125-1.12305ZM20.4102-4.44336C15.625-4.44336 13.0859-6.93359 13.0859-11.8164L13.0859-58.5449C13.0859-63.3789 15.625-65.918 20.4102-65.918L88.0859-65.918C92.7246-65.918 95.4102-63.3789 95.4102-58.5449L95.4102-11.8164C95.4102-6.93359 92.7246-4.44336 88.0859-4.44336ZM25.0488-41.1621C23.1934-40.0391 24.7559-37.3535 26.709-38.5742L38.1348-45.7031C39.4531-46.5332 39.3555-48.5352 38.1348-49.3652L26.709-56.4941C24.7559-57.7148 23.1445-55.0781 25.0488-53.9062L35.5957-47.5098ZM40.2344-37.6953C40.2344-36.8652 40.8691-36.2793 41.6992-36.2793L56.25-36.2793C57.0801-36.2793 57.7148-36.8652 57.7148-37.6953C57.7148-38.5742 57.0801-39.1602 56.25-39.1602L41.6992-39.1602C40.8691-39.1602 40.2344-38.5742 40.2344-37.6953Z"/>
  </g>
  <g id="Ultralight-S" transform="matrix(1 0 0 1 505.707 696)">
   <path d="M19.7754-1.5625L88.2812-1.5625C94.8242-1.5625 98.2422-5.12695 98.2422-11.5234L98.2422-58.7891C98.2422-65.2344 94.8242-68.75 88.2812-68.75L19.7754-68.75C13.2324-68.75 9.76562-65.2832 9.76562-58.7891L9.76562-11.5234C9.76562-5.0293 13.2324-1.5625 19.7754-1.5625ZM19.873-3.75977C14.6484-3.75977 11.9629-6.44531 11.9629-11.6699L11.9629-58.6426C11.9629-63.8672 14.6484-66.5527 19.873-66.5527L88.1836-66.5527C93.1641-66.5527 96.0449-63.8672 96.0449-58.6426L96.0449-11.6699C96.0449-6.44531 93.1641-3.75977 88.1836-3.75977ZM24.6094-41.2598C23.1934-40.4297 24.4141-38.4766 25.7812-39.3066L37.3535-46.582C38.4277-47.2168 38.3301-48.7305 37.3535-49.3164L25.7812-56.5918C24.4141-57.4219 23.0957-55.5664 24.6094-54.6387L35.6934-47.9492ZM39.4531-38.1348C39.4531-37.5 39.8926-37.0605 40.5273-37.0605L55.0781-37.0605C55.7129-37.0605 56.1035-37.5 56.1035-38.1348C56.1035-38.7695 55.7129-39.209 55.0781-39.209L40.5273-39.209C39.8926-39.209 39.4531-38.7695 39.4531-38.1348Z"/>
  </g>
 </g>
</svg>
